<?xml version="1.0" encoding="UTF-8"?>
<svg version="1.1" xmlns="http://www.w3.org/2000/svg" width="128" height="171">
<path d="M0 0 C2.46387285 0.02370989 4.92666582 0.02052377 7.390625 0.01391602 C31.23698211 0.05719189 31.23698211 0.05719189 38.37817383 6.7902832 C43.93080547 12.83230209 47.58789104 19.73349596 51.3359375 26.96118164 C51.96649321 28.15569651 52.59800015 29.34970975 53.23046875 30.54321289 C54.80311783 33.52079563 56.35431375 36.50880653 57.89355469 39.50378418 C58.53647272 40.75389332 59.18175797 42.00278716 59.82910156 43.25061035 C60.80679049 45.13777457 61.77562718 47.02923526 62.7421875 48.92211914 C63.31259766 50.03377441 63.88300781 51.14542969 64.47070312 52.29077148 C72.81256047 70.89884168 58.57255816 96.30657239 52.38891602 114.30322266 C51.14252844 117.9318904 49.90743535 121.56429566 48.67499638 125.19772053 C47.70867629 128.04048115 46.73462026 130.88054817 45.7585125 133.71996117 C45.300163 135.05718849 44.84448866 136.39533646 44.39180183 137.73449135 C35.82133134 163.05182007 35.82133134 163.05182007 26.8359375 168.33618164 C12.84903932 173.87816017 -7.76434761 173.23607472 -21.6640625 168.02368164 C-30.72594868 161.90690847 -33.53815784 152.79564201 -36.921875 142.85571289 C-37.26693085 141.8567247 -37.61198669 140.85773651 -37.96749878 139.82847595 C-39.07998408 136.60367381 -40.18468926 133.37626984 -41.2890625 130.14868164 C-42.05161361 127.93204864 -42.8146363 125.71557781 -43.578125 123.49926758 C-45.08497208 119.1230451 -46.58896086 114.74585642 -48.09082031 110.36791992 C-49.87024921 105.18472481 -51.66462542 100.00691864 -53.46875 94.83227539 C-53.93871994 93.48163612 -54.40861314 92.13097015 -54.87841797 90.78027344 C-55.71149831 88.3865517 -56.54634817 85.99344478 -57.38330078 83.60107422 C-57.74407715 82.55975342 -58.10485352 81.51843262 -58.4765625 80.44555664 C-58.78207031 79.56867188 -59.08757813 78.69178711 -59.40234375 77.78833008 C-60.76263232 73.40924727 -61.3604079 69.22761836 -61.4765625 64.64868164 C-61.51394531 63.69606445 -61.55132812 62.74344727 -61.58984375 61.76196289 C-60.39451948 52.14453738 -54.7173111 43.28840137 -50.2890625 34.83618164 C-49.68964844 33.67731445 -49.09023438 32.51844727 -48.47265625 31.32446289 C-35.38915061 6.20753775 -35.38915061 6.20753775 -25.80322266 2.39794922 C-17.16843896 0.08569617 -8.87209652 -0.09123662 0 0 Z " fill="#080809" transform="translate(61.1640625,-0.336181640625)"/>
<path d="M0 0 C20.13 0 40.26 0 61 0 C61.99 2.97 62.98 5.94 64 9 C64.66 9 65.32 9 66 9 C69 13.38461538 69 13.38461538 69 16 C65.77060585 14.88989576 63.29322577 13.49078717 60.5625 11.5 C51.33579406 5.63160729 38.54096746 6.71164527 28 7 C27.54109375 7.93328125 27.0821875 8.8665625 26.609375 9.828125 C24.97543932 13.048406 23.55485497 15.44514503 21 18 C19.2675 18.4640625 19.2675 18.4640625 17.5 18.9375 C13.01481169 20.29907502 12.21428899 21.96683077 10 26 C9.62875 26.928125 9.2575 27.85625 8.875 28.8125 C6.50762289 31.57443997 5.4176613 31.42290769 1.875 31.75 C0.98554688 31.78609375 0.09609375 31.8221875 -0.8203125 31.859375 C-2.97780056 31.75776236 -2.97780056 31.75776236 -4 33 C-4.23192865 34.51469448 -4.41215238 36.03754562 -4.5625 37.5625 C-4.64628906 38.38878906 -4.73007812 39.21507812 -4.81640625 40.06640625 C-4.87699219 40.70449219 -4.93757813 41.34257813 -5 42 C-4.34 42 -3.68 42 -3 42 C-2.67 41.01 -2.34 40.02 -2 39 C-1.01 39 -0.02 39 1 39 C1 39.66 1 40.32 1 41 C4.01031744 41.93423645 4.86650268 42.04449911 8 41 C8 41.99 8 42.98 8 44 C6.35 44 4.7 44 3 44 C2.505 46.475 2.505 46.475 2 49 C4.08129104 49.98350025 6.16511359 50.96164458 8.25 51.9375 C9.41015625 52.48277344 10.5703125 53.02804688 11.765625 53.58984375 C21.12236597 57.66929241 32.0214789 56.7094974 41.79296875 54.45703125 C46.66849767 53.44740845 50.71756536 53.51034314 55.4375 55.3125 C58 57 58 57 59 60 C59.07051114 62.73865287 59.09357765 65.45027588 59.0625 68.1875 C59.05798828 68.93708984 59.05347656 69.68667969 59.04882812 70.45898438 C59.03706354 72.30602383 59.01912865 74.15302213 59 76 C58.34 76 57.68 76 57 76 C56.62875 77.85625 56.62875 77.85625 56.25 79.75 C54.94990617 85.65694804 52.97029102 91.28615604 51 97 C43.08 97 35.16 97 27 97 C28.71165235 89.16243399 30.67651839 82.76718861 35 76 C35.66 76 36.32 76 37 76 C37.33 72.04 37.66 68.08 38 64 C24.8869729 67.398193 16.45513225 72.45362614 9.125 83.9375 C8.75375 84.618125 8.3825 85.29875 8 86 C6.515 85.505 6.515 85.505 5 85 C4.20385742 83.21264648 4.20385742 83.21264648 3.60546875 80.87109375 C3.25995972 79.57703613 3.25995972 79.57703613 2.9074707 78.25683594 C2.66988037 77.32645508 2.43229004 76.39607422 2.1875 75.4375 C0.341978 68.58253742 -1.62313061 61.87240539 -4.1875 55.25 C-4.43814209 54.60192383 -4.68878418 53.95384766 -4.94702148 53.28613281 C-5.30775757 52.35752441 -5.30775757 52.35752441 -5.67578125 51.41015625 C-10 40.27433628 -10 40.27433628 -10 36 C-10.66 36 -11.32 36 -12 36 C-13.74505575 30.76483274 -13.66668136 26.02833599 -11.5 21 C-11.005 20.01 -10.51 19.02 -10 18 C-9.34 18 -8.68 18 -8 18 C-7.01 15.03 -6.02 12.06 -5 9 C-4.34 9 -3.68 9 -3 9 C-2.01 6.03 -1.02 3.06 0 0 Z " fill="#8F85C3" transform="translate(30,34)"/>
<path d="M0 0 C6.17453291 -0.19796271 12.34721535 -0.34302108 18.52416992 -0.43945312 C20.62443212 -0.47965263 22.72447087 -0.53422399 24.82397461 -0.60351562 C27.84544931 -0.70072891 30.86396423 -0.74595912 33.88671875 -0.78125 C35.29167854 -0.84318542 35.29167854 -0.84318542 36.72502136 -0.90637207 C39.38180769 -0.90819523 41.47360277 -0.82919267 44 0 C46.72573012 2.7676276 49 6.01757785 49 10 C31.51 10 14.02 10 -4 10 C-3.67 8.68 -3.34 7.36 -3 6 C-2.34 6 -1.68 6 -1 6 C-0.67 4.02 -0.34 2.04 0 0 Z " fill="#A4B1C0" transform="translate(38,18)"/>
<path d="M0 0 C20.13 0 40.26 0 61 0 C61.99 2.97 62.98 5.94 64 9 C64.66 9 65.32 9 66 9 C69 13.38461538 69 13.38461538 69 16 C65.77060585 14.88989576 63.29322577 13.49078717 60.5625 11.5 C51.76642219 5.87844651 39.12997934 6.63943391 29 6 C29 5.67 29 5.34 29 5 C32.465 4.505 32.465 4.505 36 4 C31.9269597 3.02314635 28.131793 2.88454556 23.94921875 2.90234375 C22.96100883 2.90446617 22.96100883 2.90446617 21.95283508 2.90663147 C19.86434238 2.912195 17.77595989 2.92474053 15.6875 2.9375 C14.26497551 2.94251972 12.84244934 2.9470818 11.41992188 2.95117188 C7.94657923 2.96215243 4.47330039 2.97939165 1 3 C0.7834375 4.175625 0.7834375 4.175625 0.5625 5.375 C0 8 0 8 -1 10 C-1.99 10 -2.98 10 -4 10 C-3.67 10.99 -3.34 11.98 -3 13 C-3.97896003 16.53931705 -5.2602489 19.76903367 -7 23 C-7.99 23 -8.98 23 -10 23 C-10 24.65 -10 26.3 -10 28 C-10.66 28 -11.32 28 -12 28 C-11.67 30.64 -11.34 33.28 -11 36 C-13.48233348 32.27649978 -13.54322777 29.31433067 -13 25 C-12.19002181 22.50920001 -11.17696713 20.35393425 -10 18 C-9.34 18 -8.68 18 -8 18 C-7.01 15.03 -6.02 12.06 -5 9 C-4.34 9 -3.68 9 -3 9 C-2.01 6.03 -1.02 3.06 0 0 Z " fill="#857CB5" transform="translate(30,34)"/>
<path d="M0 0 C11.88 0 23.76 0 36 0 C34 9 34 9 33 10 C30.70848583 10.08790975 28.41427476 10.10694038 26.12109375 10.09765625 C25.09110008 10.09553383 25.09110008 10.09553383 24.04029846 10.09336853 C21.83932199 10.08775479 19.63844591 10.07520007 17.4375 10.0625 C15.94856917 10.05748676 14.45963676 10.05292355 12.97070312 10.04882812 C9.31376925 10.03778093 5.65689442 10.02050713 2 10 C0.26265853 6.19956554 0 4.40285423 0 0 Z " fill="#A6B2C1" transform="translate(43,137)"/>
<path d="M0 0 C5.61852403 3.79630002 11.23036239 8.34554358 15 14 C14.69814573 16.95817184 14.33281171 19.33437658 13 22 C12.34 22 11.68 22 11 22 C9.9261293 20.49479619 8.91622499 18.9437365 7.9375 17.375 C4.37169213 12.10834653 0.53749051 9.02975451 -5 6 C-5.90117554 5.48880615 -5.90117554 5.48880615 -6.82055664 4.96728516 C-9.28937794 3.87156767 -11.29725655 3.59657566 -13.984375 3.3671875 C-14.91894531 3.28339844 -15.85351562 3.19960938 -16.81640625 3.11328125 C-18.26853516 2.99533203 -18.26853516 2.99533203 -19.75 2.875 C-21.22533203 2.74544922 -21.22533203 2.74544922 -22.73046875 2.61328125 C-25.15311603 2.40159362 -27.57615667 2.19743721 -30 2 C-29.67 0.35 -29.34 -1.3 -29 -3 C-19.40387 -5.77723292 -8.89005572 -4.29894713 0 0 Z " fill="#A4AFBD" transform="translate(89,48)"/>
<path d="M0 0 C-1.37590278 3.12885585 -2.21453692 4.17431125 -5 6.4375 C-8.64462706 9.43624378 -11.48682797 12.85736121 -14.375 16.5625 C-14.81585938 17.11671631 -15.25671875 17.67093262 -15.7109375 18.24194336 C-18.15238721 21.43919342 -19.59495464 23.97204891 -20 28 C-21.32 28 -22.64 28 -24 28 C-23.505 23.545 -23.505 23.545 -23 19 C-22.34 19 -21.68 19 -21 19 C-20.89945313 18.25621094 -20.79890625 17.51242188 -20.6953125 16.74609375 C-19.52520776 12.12483739 -16.27027606 9.33529149 -13 6 C-12.10474609 5.08541016 -12.10474609 5.08541016 -11.19140625 4.15234375 C-7.51058959 0.68467015 -5.28444194 -0.77333297 0 0 Z " fill="#949DA9" transform="translate(63,103)"/>
<path d="M0 0 C19.41412111 0.15880672 19.41412111 0.15880672 26.8125 5.1875 C26.1525 5.5175 25.4925 5.8475 24.8125 6.1875 C24.1525 5.8575 23.4925 5.5275 22.8125 5.1875 C22.8125 5.8475 22.8125 6.5075 22.8125 7.1875 C22.15765625 7.043125 21.5028125 6.89875 20.828125 6.75 C12.69266808 5.0953308 3.92621818 3.78982914 -4.1875 6.1875 C-4.5175 7.5075 -4.8475 8.8275 -5.1875 10.1875 C-1.2275 10.1875 2.7325 10.1875 6.8125 10.1875 C6.8125 10.5175 6.8125 10.8475 6.8125 11.1875 C2.1925 11.1875 -2.4275 11.1875 -7.1875 11.1875 C-6.8575 9.5375 -6.5275 7.8875 -6.1875 6.1875 C-6.8475 6.1875 -7.5075 6.1875 -8.1875 6.1875 C-7.06417485 -0.07102583 -6.36230671 0.03530692 0 0 Z " fill="#12121A" transform="translate(64.1875,39.8125)"/>
<path d="M0 0 C20.13 0 40.26 0 61 0 C61 0.99 61 1.98 61 3 C60.45539124 2.83923477 59.91078247 2.67846954 59.34967041 2.51283264 C56.65207295 1.92406239 54.16685617 1.8382162 51.40527344 1.79467773 C50.28441345 1.77473251 49.16355347 1.75478729 48.00872803 1.73423767 C46.20229828 1.70916893 46.20229828 1.70916893 44.359375 1.68359375 C43.12205627 1.66281265 41.88473755 1.64203156 40.60992432 1.62062073 C37.32861309 1.56634128 34.04727267 1.51608221 30.76586914 1.46777344 C27.41416896 1.41743908 24.0625628 1.3617364 20.7109375 1.30664062 C14.14069536 1.19955491 7.57038702 1.09776964 1 1 C0.855625 2.11375 0.71125 3.2275 0.5625 4.375 C0 8 0 8 -1 10 C-1.99 10 -2.98 10 -4 10 C-3.67 10.99 -3.34 11.98 -3 13 C-3.97896003 16.53931705 -5.2602489 19.76903367 -7 23 C-7.99 23 -8.98 23 -10 23 C-10 24.65 -10 26.3 -10 28 C-10.66 28 -11.32 28 -12 28 C-11.67 30.64 -11.34 33.28 -11 36 C-13.48233348 32.27649978 -13.54322777 29.31433067 -13 25 C-12.19002181 22.50920001 -11.17696713 20.35393425 -10 18 C-9.34 18 -8.68 18 -8 18 C-7.01 15.03 -6.02 12.06 -5 9 C-4.34 9 -3.68 9 -3 9 C-2.01 6.03 -1.02 3.06 0 0 Z " fill="#6B648F" transform="translate(30,34)"/>
<path d="M0 0 C-0.33 3.96 -0.66 7.92 -1 12 C-1.66 12 -2.32 12 -3 12 C-3.12375 11.360625 -3.2475 10.72125 -3.375 10.0625 C-3.58125 9.381875 -3.7875 8.70125 -4 8 C-4.66 7.67 -5.32 7.34 -6 7 C-5.67 6.34 -5.34 5.68 -5 5 C-12.74189414 6.45160515 -17.19898539 10.90414175 -22.375 16.625 C-24.01111823 19.01624973 -25.06236687 21.26523672 -26 24 C-26.99 23.01 -27.98 22.02 -29 21 C-26.8905622 13.36427464 -22.0007517 8.43849852 -15.2890625 4.34765625 C-10.00071924 1.67246794 -6.03493606 0 0 0 Z " fill="#21222D" transform="translate(68,98)"/>
<path d="M0 0 C11.88 0 23.76 0 36 0 C35.34 2.97 34.68 5.94 34 9 C33.34 9.33 32.68 9.66 32 10 C32.66 7.36 33.32 4.72 34 2 C33.34 2.33 32.68 2.66 32 3 C29.89625004 3.15441209 27.78804881 3.24992639 25.6796875 3.31640625 C23.79443359 3.37924805 23.79443359 3.37924805 21.87109375 3.44335938 C19.89302734 3.50233398 19.89302734 3.50233398 17.875 3.5625 C16.53514249 3.60569512 15.19529844 3.64930973 13.85546875 3.69335938 C10.57042185 3.79970981 7.28529719 3.90173808 4 4 C4 5.98 4 7.96 4 10 C3.01 9.67 2.02 9.34 1 9 C0.67 6.03 0.34 3.06 0 0 Z " fill="#737B84" transform="translate(43,137)"/>
<path d="M0 0 C4.06809929 0.52537408 6.17603456 1.61400461 9.1875 4.375 C9.86167969 4.98085938 10.53585938 5.58671875 11.23046875 6.2109375 C13 8 13 8 15 11 C14.69814573 13.95817184 14.33281171 16.33437658 13 19 C12.34 19 11.68 19 11 19 C9.88004177 17.47815702 8.8287458 15.90547111 7.8125 14.3125 C4.66877633 9.65635465 1.76678577 6.91844027 -3 4 C-2.34 3.67 -1.68 3.34 -1 3 C-0.67 2.01 -0.34 1.02 0 0 Z " fill="#9BA6B2" transform="translate(89,51)"/>
<path d="M0 0 C2 0.1875 2 0.1875 4 1 C6.4294516 4.6441774 6.16179575 6.71241272 6 11 C5.34 11 4.68 11 4 11 C3.79375 11.639375 3.5875 12.27875 3.375 12.9375 C2 15 2 15 -0.875 15.875 C-4.04682188 16.00187288 -5.38930678 15.70699172 -8 14 C-8 13.34 -8 12.68 -8 12 C-7.01 12 -6.02 12 -5 12 C-4.80664062 11.30132812 -4.61328125 10.60265625 -4.4140625 9.8828125 C-4.15367188 8.97273438 -3.89328125 8.06265625 -3.625 7.125 C-3.36976562 6.22007813 -3.11453125 5.31515625 -2.8515625 4.3828125 C-2 2 -2 2 0 0 Z " fill="#918AC5" transform="translate(28,45)"/>
<path d="M0 0 C14.52 0 29.04 0 44 0 C44.66 1.32 45.32 2.64 46 4 C45.34 3.67 44.68 3.34 44 3 C41.0851463 2.84279903 38.19060364 2.74144346 35.2734375 2.68359375 C34.41062164 2.66281265 33.54780579 2.64203156 32.65884399 2.62062073 C29.89764507 2.55513966 27.13634962 2.49624702 24.375 2.4375 C22.50519828 2.3943134 20.63540638 2.35069907 18.765625 2.30664062 C14.17718272 2.19945976 9.58864317 2.09818825 5 2 C4.7215625 2.61359375 4.443125 3.2271875 4.15625 3.859375 C2.61661475 6.70978081 0.63184355 8.15770952 -2 10 C-2.66 10 -3.32 10 -4 10 C-3.67 8.68 -3.34 7.36 -3 6 C-2.34 6 -1.68 6 -1 6 C-0.67 4.02 -0.34 2.04 0 0 Z " fill="#6E7680" transform="translate(38,18)"/>
<path d="M0 0 C0.33 0 0.66 0 1 0 C1 2.64 1 5.28 1 8 C1.66 8 2.32 8 3 8 C3.33 7.01 3.66 6.02 4 5 C4.99 5 5.98 5 7 5 C7 5.66 7 6.32 7 7 C10.01031744 7.93423645 10.86650268 8.04449911 14 7 C14 7.99 14 8.98 14 10 C12.35 10 10.7 10 9 10 C8.34 11.32 7.68 12.64 7 14 C5.35 14 3.7 14 2 14 C2 15.98 2 17.96 2 20 C-0.00993705 16.98509443 -0.72623341 14.7850073 -1.625 11.3125 C-1.88539062 10.31863281 -2.14578125 9.32476562 -2.4140625 8.30078125 C-2.60742188 7.54152344 -2.80078125 6.78226562 -3 6 C-2.34 5.34 -1.68 4.68 -1 4 C-0.3574765 1.93125966 -0.3574765 1.93125966 0 0 Z " fill="#7971A2" transform="translate(24,68)"/>
<path d="M0 0 C-1.35610085 3.12375469 -2.79456016 4.9310969 -5.4375 7.0625 C-7.75077474 8.9460952 -9.9215336 10.85797194 -12 13 C-12.66 12.01 -13.32 11.02 -14 10 C-14.99 10 -15.98 10 -17 10 C-15.73232923 8.70522938 -14.46073776 7.41429661 -13.1875 6.125 C-12.47980469 5.40570313 -11.77210937 4.68640625 -11.04296875 3.9453125 C-7.26627341 0.34914753 -5.1153904 -0.22735068 0 0 Z " fill="#9DA7B4" transform="translate(63,103)"/>
<path d="M0 0 C1.875 0.3125 1.875 0.3125 4 1 C6.4294516 4.6441774 6.16179575 6.71241272 6 11 C5.34 11 4.68 11 4 11 C3.79375 11.639375 3.5875 12.27875 3.375 12.9375 C2 15 2 15 -0.9375 15.8125 C-4 16 -4 16 -7 15 C-7 14.34 -7 13.68 -7 13 C-5.906875 12.855625 -4.81375 12.71125 -3.6875 12.5625 C-0.06877013 12.11711896 -0.06877013 12.11711896 3 11 C3 8.36 3 5.72 3 3 C2.01 2.67 1.02 2.34 0 2 C0 1.34 0 0.68 0 0 Z " fill="#A5A8CD" transform="translate(28,45)"/>
<path d="M0 0 C2.78060333 2.78060333 3.68701842 6.12305089 5 9.75 C5.26039062 10.45382813 5.52078125 11.15765625 5.7890625 11.8828125 C10.28783779 24.10675749 10.28783779 24.10675749 10 29 C10.66 29.33 11.32 29.66 12 30 C11.34 30.33 10.68 30.66 10 31 C8 30 8 30 7.25390625 28.1015625 C7.02574219 27.28429687 6.79757813 26.46703125 6.5625 25.625 C6.30726562 24.72136719 6.05203125 23.81773438 5.7890625 22.88671875 C5.52867188 21.93410156 5.26828125 20.98148438 5 20 C4.73960938 19.07832031 4.47921875 18.15664062 4.2109375 17.20703125 C2.61855812 11.50502628 1.23391174 5.78989357 0 0 Z " fill="#7D74A7" transform="translate(27,89)"/>
<path d="M0 0 C0.99 0 1.98 0 3 0 C3 0.66 3 1.32 3 2 C6.01031744 2.93423645 6.86650268 3.04449911 10 2 C10 2.99 10 3.98 10 5 C8.35 5 6.7 5 5 5 C4.34 6.32 3.68 7.64 3 9 C2.01 8.67 1.02 8.34 0 8 C-0.38063221 5.6739143 -0.71269945 3.33944736 -1 1 C-0.67 0.67 -0.34 0.34 0 0 Z " fill="#2C2E35" transform="translate(28,73)"/>
<path d="M0 0 C-0.33 3.96 -0.66 7.92 -1 12 C-1.66 12 -2.32 12 -3 12 C-3.12375 11.360625 -3.2475 10.72125 -3.375 10.0625 C-3.58125 9.381875 -3.7875 8.70125 -4 8 C-4.66 7.67 -5.32 7.34 -6 7 C-5.67 5.35 -5.34 3.7 -5 2 C-5.99 1.67 -6.98 1.34 -8 1 C-5 0 -5 0 0 0 Z " fill="#272535" transform="translate(68,98)"/>
<path d="M0 0 C0.66 0 1.32 0 2 0 C2.21917317 2.70313576 2.32851983 4.43958382 0.9375 6.8125 C-1.99268751 8.60842137 -4.6472953 8.18977574 -8 8 C-8.33 7.01 -8.66 6.02 -9 5 C-8.43410156 4.72285156 -7.86820313 4.44570313 -7.28515625 4.16015625 C-6.55167969 3.79792969 -5.81820312 3.43570313 -5.0625 3.0625 C-3.96615234 2.52302734 -3.96615234 2.52302734 -2.84765625 1.97265625 C-1.03750973 1.13628173 -1.03750973 1.13628173 0 0 Z " fill="#E6E6E6" transform="translate(55,57)"/>
<path d="M0 0 C2.5 0.125 2.5 0.125 3.5 1.125 C3.625 3.625 3.625 3.625 3.5 6.125 C2.5 7.125 2.5 7.125 0 7.25 C-2.5 7.125 -2.5 7.125 -3.5 6.125 C-3.625 3.625 -3.625 3.625 -3.5 1.125 C-2.5 0.125 -2.5 0.125 0 0 Z " fill="#A8AFC9" transform="translate(73.5,114.875)"/>
<path d="M0 0 C0.33 0.99 0.66 1.98 1 3 C1.70125 2.835 2.4025 2.67 3.125 2.5 C6.13888194 1.97584662 8.94713625 1.92900317 12 2 C12 2.33 12 2.66 12 3 C9.03 3.66 6.06 4.32 3 5 C2.67 6.32 2.34 7.64 2 9 C5.96 9 9.92 9 14 9 C14 9.33 14 9.66 14 10 C9.38 10 4.76 10 0 10 C0.33 8.35 0.66 6.7 1 5 C0.34 5 -0.32 5 -1 5 C-0.67 3.35 -0.34 1.7 0 0 Z " fill="#474B54" transform="translate(57,41)"/>
<path d="M0 0 C1.44010481 0.25662245 2.8770687 0.53090821 4.3125 0.8125 C5.11300781 0.96332031 5.91351563 1.11414062 6.73828125 1.26953125 C9.23445587 2.07572236 10.32422106 3.02052002 12 5 C10.68 4.67 9.36 4.34 8 4 C8 4.66 8 5.32 8 6 C4.37 5.34 0.74 4.68 -3 4 C-1.68 3.34 -0.36 2.68 1 2 C0.67 1.34 0.34 0.68 0 0 Z " fill="#20212B" transform="translate(79,41)"/>
<path d="M0 0 C-0.33 0.99 -0.66 1.98 -1 3 C-3.875 4.125 -3.875 4.125 -7 5 C-7.99 5.33 -8.98 5.66 -10 6 C-10 4.68 -10 3.36 -10 2 C-6.5980513 -0.09350689 -3.94727588 -0.17942163 0 0 Z " fill="#191A25" transform="translate(63,100)"/>
<path d="M0 0 C0 0.99 0 1.98 0 3 C-3.97977076 3.8441938 -7.97007218 4.44687265 -12 5 C-12 7.64 -12 10.28 -12 13 C-12.33 13 -12.66 13 -13 13 C-13.05399736 11.54207116 -13.09279177 10.08357288 -13.125 8.625 C-13.15980469 7.40683594 -13.15980469 7.40683594 -13.1953125 6.1640625 C-13 4 -13 4 -11 2 C-8.65234375 1.62109375 -8.65234375 1.62109375 -5.9375 1.4375 C-2.66160436 1.46018047 -2.66160436 1.46018047 0 0 Z " fill="#1D1A2E" transform="translate(38,63)"/>
<path d="M0 0 C0.66 0 1.32 0 2 0 C2 1.32 2 2.64 2 4 C1.01 4 0.02 4 -1 4 C-1 8.62 -1 13.24 -1 18 C-3.48233348 14.27649978 -3.54322777 11.31433067 -3 7 C-2.19002181 4.50920001 -1.17696713 2.35393425 0 0 Z " fill="#5A5576" transform="translate(20,52)"/>
<path d="M0 0 C2.31 0 4.62 0 7 0 C7 1.32 7 2.64 7 4 C4.69 4 2.38 4 0 4 C0 2.68 0 1.36 0 0 Z " fill="#5A5F65" transform="translate(40,76)"/>
<path d="M0 0 C0.66 0 1.32 0 2 0 C1.125 4.75 1.125 4.75 0 7 C-0.99 7 -1.98 7 -3 7 C-2.67 7.99 -2.34 8.98 -2 10 C-2.99 10.33 -3.98 10.66 -5 11 C-4.67 9.35 -4.34 7.7 -4 6 C-3.34 6 -2.68 6 -2 6 C-1.34 4.02 -0.68 2.04 0 0 Z " fill="#726C96" transform="translate(29,37)"/>
<path d="M0 0 C0.99 0 1.98 0 3 0 C1.4722133 3.43752007 -0.50181056 6.18953688 -3 9 C-3.66 9 -4.32 9 -5 9 C-4.67 7.68 -4.34 6.36 -4 5 C-3.34 5 -2.68 5 -2 5 C-2 4.34 -2 3.68 -2 3 C-1.34 3 -0.68 3 0 3 C0 2.01 0 1.02 0 0 Z " fill="#848D98" transform="translate(39,19)"/>
<path d="M0 0 C1.98 0.99 1.98 0.99 4 2 C4 3.65 4 5.3 4 7 C4.66 7.33 5.32 7.66 6 8 C5.01 8.495 5.01 8.495 4 9 C2 8 2 8 1.3671875 6.15234375 C1.20476563 5.42144531 1.04234375 4.69054687 0.875 3.9375 C0.70742188 3.20402344 0.53984375 2.47054687 0.3671875 1.71484375 C0.24601562 1.14894531 0.12484375 0.58304687 0 0 Z " fill="#645E84" transform="translate(33,111)"/>
<path d="M0 0 C1.98 0.495 1.98 0.495 4 1 C3.67 2.32 3.34 3.64 3 5 C1.68 4.67 0.36 4.34 -1 4 C-0.67 2.68 -0.34 1.36 0 0 Z " fill="#A5A8CD" transform="translate(37,46)"/>
<path d="M0 0 C0.33 0.99 0.66 1.98 1 3 C-0.625 5 -0.625 5 -3 7 C-6.25 7.25 -6.25 7.25 -9 7 C-9 6.67 -9 6.34 -9 6 C-7.88625 5.9071875 -7.88625 5.9071875 -6.75 5.8125 C-3.1814261 4.75814862 -2.07754772 3.00090227 0 0 Z " fill="#262336" transform="translate(55,46)"/>
<path d="M0 0 C0.598125 0.185625 1.19625 0.37125 1.8125 0.5625 C4.16408762 1.22093687 4.16408762 1.22093687 7 0 C7 0.99 7 1.98 7 3 C4.69 3 2.38 3 0 3 C0 2.01 0 1.02 0 0 Z " fill="#70747B" transform="translate(31,75)"/>
</svg>
